<?xml version="1.0" standalone="no"?>
<!DOCTYPE svg PUBLIC "-//W3C//DTD SVG 20010904//EN"
 "http://www.w3.org/TR/2001/REC-SVG-20010904/DTD/svg10.dtd">
<svg version="1.0" xmlns="http://www.w3.org/2000/svg"
 width="500.000000pt" height="500.000000pt" viewBox="0 0 500.000000 500.000000"
 preserveAspectRatio="xMidYMid meet">
<metadata>
Created by potrace 1.11, written by Peter Selinger 2001-2013
</metadata>
<g transform="translate(0.000000,500.000000) scale(0.100000,-0.100000)"
fill="#000000" stroke="none">
<path d="M1345 4984 c-356 -63 -654 -284 -814 -602 -35 -70 -86 -216 -96 -278
-3 -21 -9 -55 -12 -74 -3 -19 -7 -116 -8 -215 -2 -99 -3 -182 -4 -185 0 -3
-61 55 -135 129 -104 104 -135 129 -140 116 -8 -21 -8 -3148 0 -3169 6 -14
101 -16 975 -16 l969 0 0 -345 0 -345 1395 0 1395 0 0 1595 c0 1209 -3 1595
-12 1595 -6 0 -71 -59 -143 -130 l-132 -131 0 153 c-2 293 -29 424 -130 623
-80 159 -224 320 -373 418 -92 60 -269 135 -360 152 -117 22 -154 26 -238 27
-54 0 -116 -3 -139 -6 -23 -4 -55 -9 -70 -11 -37 -5 -143 -33 -168 -44 -11 -5
-40 -16 -65 -25 -100 -35 -231 -122 -349 -233 -31 -28 -56 -51 -57 -50 -1 1
-4 34 -7 72 -9 97 -15 126 -47 226 -94 287 -288 514 -555 650 -71 37 -197 80
-270 94 -22 5 -49 10 -60 12 -60 12 -278 10 -350 -3z m315 -273 c30 -5 67 -14
83 -20 15 -6 27 -9 27 -6 0 2 30 -9 68 -24 195 -81 337 -212 430 -396 50 -98
67 -157 85 -288 l10 -79 -134 -134 c-73 -74 -138 -134 -144 -134 -6 0 -69 59
-140 130 -71 72 -134 130 -140 130 -6 0 -69 -58 -140 -130 -71 -71 -134 -130
-140 -130 -6 0 -69 59 -140 130 -71 72 -132 130 -137 130 -5 0 -68 -61 -141
-135 l-131 -135 -141 140 -141 141 3 57 c4 62 39 210 53 228 5 6 11 20 13 32
6 42 108 191 178 261 39 39 75 71 79 71 4 0 24 13 45 30 135 107 392 164 595
131z m1950 -696 c97 -15 247 -76 337 -137 76 -52 223 -208 223 -237 0 -6 3
-11 8 -11 8 0 22 -28 61 -120 31 -72 48 -139 57 -215 3 -27 6 -61 8 -75 2 -21
-22 -49 -136 -160 l-138 -134 -140 139 -139 139 -141 -139 -141 -140 -130 133
c-71 72 -136 132 -145 132 -9 0 -74 -60 -145 -132 l-129 -133 0 447 0 447 43
34 c48 40 191 117 216 117 9 0 21 4 27 9 5 6 23 13 39 16 17 3 57 11 90 18 62
13 196 14 275 2z"/>
</g>
</svg>
